<mxfile host="app.diagrams.net" modified="2023-12-25T03:57:44.647Z" agent="Mozilla/5.0 (Windows NT 10.0; Win64; x64) AppleWebKit/537.36 (KHTML, like Gecko) Chrome/120.0.0.0 Safari/537.36" etag="M4SK8-zBnT1ZxBtOmg6-" version="22.1.11" type="github">
  <diagram name="Page-1" id="tKTFEK8Sy4EYiJjbZsDl">
    <mxGraphModel dx="1434" dy="706" grid="1" gridSize="10" guides="1" tooltips="1" connect="1" arrows="1" fold="1" page="1" pageScale="1" pageWidth="827" pageHeight="1169" math="0" shadow="0">
      <root>
        <mxCell id="0" />
        <mxCell id="1" parent="0" />
        <mxCell id="jTdSeIXHc9XUFXkbGFJo-1" value="" style="group" parent="1" connectable="0" vertex="1">
          <mxGeometry x="109.97" y="440" width="590" height="80" as="geometry" />
        </mxCell>
        <mxCell id="jTdSeIXHc9XUFXkbGFJo-2" value="&lt;font style=&quot;font-size: 16px;&quot;&gt;&lt;u&gt;Country&lt;span style=&quot;white-space: pre;&quot;&gt;&#x9;&lt;/span&gt;&lt;/u&gt;&lt;/font&gt;" style="rounded=0;whiteSpace=wrap;html=1;" parent="jTdSeIXHc9XUFXkbGFJo-1" vertex="1">
          <mxGeometry x="80" y="30" width="200" height="50" as="geometry" />
        </mxCell>
        <mxCell id="jTdSeIXHc9XUFXkbGFJo-3" value="&lt;font style=&quot;font-size: 16px;&quot;&gt;Governorate&lt;/font&gt;" style="rounded=0;whiteSpace=wrap;html=1;" parent="jTdSeIXHc9XUFXkbGFJo-1" vertex="1">
          <mxGeometry x="280" y="30" width="310" height="50" as="geometry" />
        </mxCell>
        <mxCell id="jTdSeIXHc9XUFXkbGFJo-4" value="&lt;font style=&quot;font-size: 16px;&quot;&gt;&lt;u&gt;Id&lt;/u&gt;&lt;/font&gt;" style="rounded=0;whiteSpace=wrap;html=1;" parent="jTdSeIXHc9XUFXkbGFJo-1" vertex="1">
          <mxGeometry y="30" width="80" height="50" as="geometry" />
        </mxCell>
        <mxCell id="jTdSeIXHc9XUFXkbGFJo-5" value="" style="group" parent="1" connectable="0" vertex="1">
          <mxGeometry x="114" y="350" width="600" height="80" as="geometry" />
        </mxCell>
        <mxCell id="jTdSeIXHc9XUFXkbGFJo-6" value="&lt;font style=&quot;font-size: 16px;&quot;&gt;&lt;u&gt;Id&lt;/u&gt;&lt;/font&gt;" style="rounded=0;whiteSpace=wrap;html=1;" parent="jTdSeIXHc9XUFXkbGFJo-5" vertex="1">
          <mxGeometry x="10" y="30" width="72.5" height="50" as="geometry" />
        </mxCell>
        <mxCell id="jTdSeIXHc9XUFXkbGFJo-8" value="&lt;font style=&quot;font-size: 16px;&quot;&gt;Phone_number&lt;/font&gt;" style="rounded=0;whiteSpace=wrap;html=1;" parent="jTdSeIXHc9XUFXkbGFJo-5" vertex="1">
          <mxGeometry x="330" y="30" width="130" height="50" as="geometry" />
        </mxCell>
        <mxCell id="jTdSeIXHc9XUFXkbGFJo-9" value="&lt;font style=&quot;font-size: 16px;&quot;&gt;Password&lt;/font&gt;" style="rounded=0;whiteSpace=wrap;html=1;" parent="jTdSeIXHc9XUFXkbGFJo-5" vertex="1">
          <mxGeometry x="240" y="30" width="90" height="50" as="geometry" />
        </mxCell>
        <mxCell id="jTdSeIXHc9XUFXkbGFJo-10" value="&lt;font style=&quot;font-size: 16px;&quot;&gt;Name&lt;/font&gt;" style="rounded=0;whiteSpace=wrap;html=1;" parent="jTdSeIXHc9XUFXkbGFJo-5" vertex="1">
          <mxGeometry x="155" y="30" width="85" height="50" as="geometry" />
        </mxCell>
        <mxCell id="jTdSeIXHc9XUFXkbGFJo-11" value="&lt;font style=&quot;font-size: 16px;&quot;&gt;Email&lt;/font&gt;" style="rounded=0;whiteSpace=wrap;html=1;" parent="jTdSeIXHc9XUFXkbGFJo-5" vertex="1">
          <mxGeometry x="82.5" y="30" width="72.5" height="50" as="geometry" />
        </mxCell>
        <mxCell id="jTdSeIXHc9XUFXkbGFJo-12" value="" style="group" parent="1" connectable="0" vertex="1">
          <mxGeometry x="100" y="20" width="600" height="80" as="geometry" />
        </mxCell>
        <mxCell id="jTdSeIXHc9XUFXkbGFJo-13" value="&lt;font style=&quot;font-size: 16px;&quot;&gt;&lt;u&gt;Id&lt;/u&gt;&lt;/font&gt;" style="rounded=0;whiteSpace=wrap;html=1;" parent="jTdSeIXHc9XUFXkbGFJo-12" vertex="1">
          <mxGeometry x="10" y="30" width="140" height="50" as="geometry" />
        </mxCell>
        <mxCell id="jTdSeIXHc9XUFXkbGFJo-14" value="&lt;font style=&quot;font-size: 16px;&quot;&gt;Phone_number&lt;/font&gt;" style="rounded=0;whiteSpace=wrap;html=1;" parent="jTdSeIXHc9XUFXkbGFJo-12" vertex="1">
          <mxGeometry x="450" y="30" width="150" height="50" as="geometry" />
        </mxCell>
        <mxCell id="jTdSeIXHc9XUFXkbGFJo-15" value="&lt;font style=&quot;font-size: 16px;&quot;&gt;Country&lt;/font&gt;" style="rounded=0;whiteSpace=wrap;html=1;" parent="jTdSeIXHc9XUFXkbGFJo-12" vertex="1">
          <mxGeometry x="300" y="30" width="150" height="50" as="geometry" />
        </mxCell>
        <mxCell id="jTdSeIXHc9XUFXkbGFJo-16" value="&lt;span style=&quot;font-size: 16px;&quot;&gt;Name&lt;/span&gt;" style="rounded=0;whiteSpace=wrap;html=1;" parent="jTdSeIXHc9XUFXkbGFJo-12" vertex="1">
          <mxGeometry x="150" y="30" width="150" height="50" as="geometry" />
        </mxCell>
        <mxCell id="jTdSeIXHc9XUFXkbGFJo-17" value="" style="group" parent="1" connectable="0" vertex="1">
          <mxGeometry x="119" y="150" width="590" height="80" as="geometry" />
        </mxCell>
        <mxCell id="jTdSeIXHc9XUFXkbGFJo-18" value="" style="group" parent="jTdSeIXHc9XUFXkbGFJo-17" connectable="0" vertex="1">
          <mxGeometry y="30" width="590" height="50" as="geometry" />
        </mxCell>
        <mxCell id="jTdSeIXHc9XUFXkbGFJo-19" value="&lt;font style=&quot;font-size: 16px;&quot;&gt;Color&lt;/font&gt;" style="rounded=0;whiteSpace=wrap;html=1;" parent="jTdSeIXHc9XUFXkbGFJo-18" vertex="1">
          <mxGeometry width="73.75" height="50" as="geometry" />
        </mxCell>
        <mxCell id="jTdSeIXHc9XUFXkbGFJo-20" value="&lt;font style=&quot;font-size: 16px;&quot;&gt;Office_id&lt;/font&gt;" style="rounded=0;whiteSpace=wrap;html=1;" parent="jTdSeIXHc9XUFXkbGFJo-18" vertex="1">
          <mxGeometry x="516.25" width="73.75" height="50" as="geometry" />
        </mxCell>
        <mxCell id="jTdSeIXHc9XUFXkbGFJo-21" value="&lt;font style=&quot;font-size: 16px;&quot;&gt;Mileage&lt;/font&gt;" style="rounded=0;whiteSpace=wrap;html=1;" parent="jTdSeIXHc9XUFXkbGFJo-18" vertex="1">
          <mxGeometry x="442.49999999999994" width="73.75" height="50" as="geometry" />
        </mxCell>
        <mxCell id="jTdSeIXHc9XUFXkbGFJo-22" value="&lt;font style=&quot;font-size: 16px;&quot;&gt;Price&lt;/font&gt;" style="rounded=0;whiteSpace=wrap;html=1;" parent="jTdSeIXHc9XUFXkbGFJo-18" vertex="1">
          <mxGeometry x="368.75" width="73.75" height="50" as="geometry" />
        </mxCell>
        <mxCell id="jTdSeIXHc9XUFXkbGFJo-23" value="&lt;font style=&quot;font-size: 16px;&quot;&gt;Year&lt;/font&gt;" style="rounded=0;whiteSpace=wrap;html=1;" parent="jTdSeIXHc9XUFXkbGFJo-18" vertex="1">
          <mxGeometry x="295" width="73.75" height="50" as="geometry" />
        </mxCell>
        <mxCell id="jTdSeIXHc9XUFXkbGFJo-24" value="&lt;font style=&quot;font-size: 16px;&quot;&gt;Mode&lt;/font&gt;" style="rounded=0;whiteSpace=wrap;html=1;" parent="jTdSeIXHc9XUFXkbGFJo-18" vertex="1">
          <mxGeometry x="221.24999999999997" width="73.75" height="50" as="geometry" />
        </mxCell>
        <mxCell id="jTdSeIXHc9XUFXkbGFJo-25" value="&lt;font style=&quot;font-size: 16px;&quot;&gt;&lt;u&gt;Plate_id&lt;/u&gt;&lt;/font&gt;" style="rounded=0;whiteSpace=wrap;html=1;" parent="jTdSeIXHc9XUFXkbGFJo-18" vertex="1">
          <mxGeometry x="147.5" width="73.75" height="50" as="geometry" />
        </mxCell>
        <mxCell id="jTdSeIXHc9XUFXkbGFJo-26" value="&lt;font style=&quot;font-size: 16px;&quot;&gt;Status&lt;/font&gt;" style="rounded=0;whiteSpace=wrap;html=1;" parent="jTdSeIXHc9XUFXkbGFJo-18" vertex="1">
          <mxGeometry x="73.75" width="73.75" height="50" as="geometry" />
        </mxCell>
        <mxCell id="jTdSeIXHc9XUFXkbGFJo-27" style="edgeStyle=orthogonalEdgeStyle;rounded=0;orthogonalLoop=1;jettySize=auto;html=1;entryX=0.5;entryY=1;entryDx=0;entryDy=0;" parent="1" source="jTdSeIXHc9XUFXkbGFJo-20" target="jTdSeIXHc9XUFXkbGFJo-13" edge="1">
          <mxGeometry relative="1" as="geometry">
            <Array as="points">
              <mxPoint x="672" y="140" />
              <mxPoint x="180" y="140" />
            </Array>
          </mxGeometry>
        </mxCell>
        <mxCell id="jTdSeIXHc9XUFXkbGFJo-29" style="edgeStyle=orthogonalEdgeStyle;rounded=0;orthogonalLoop=1;jettySize=auto;html=1;entryX=0.5;entryY=1;entryDx=0;entryDy=0;exitX=0.5;exitY=0;exitDx=0;exitDy=0;" parent="1" source="jTdSeIXHc9XUFXkbGFJo-4" target="jTdSeIXHc9XUFXkbGFJo-6" edge="1">
          <mxGeometry relative="1" as="geometry">
            <Array as="points">
              <mxPoint x="160" y="470" />
            </Array>
          </mxGeometry>
        </mxCell>
        <mxCell id="jTdSeIXHc9XUFXkbGFJo-30" value="" style="group" parent="1" connectable="0" vertex="1">
          <mxGeometry x="104" y="250" width="605" height="80" as="geometry" />
        </mxCell>
        <mxCell id="jTdSeIXHc9XUFXkbGFJo-31" value="" style="group" parent="jTdSeIXHc9XUFXkbGFJo-30" connectable="0" vertex="1">
          <mxGeometry x="15" y="30" width="590" height="50" as="geometry" />
        </mxCell>
        <mxCell id="jTdSeIXHc9XUFXkbGFJo-32" value="&lt;font style=&quot;font-size: 16px;&quot;&gt;Start_date&lt;/font&gt;" style="rounded=0;whiteSpace=wrap;html=1;" parent="jTdSeIXHc9XUFXkbGFJo-31" vertex="1">
          <mxGeometry width="110" height="50" as="geometry" />
        </mxCell>
        <mxCell id="jTdSeIXHc9XUFXkbGFJo-33" value="&lt;font style=&quot;font-size: 16px;&quot;&gt;End_date&lt;/font&gt;" style="rounded=0;whiteSpace=wrap;html=1;" parent="jTdSeIXHc9XUFXkbGFJo-31" vertex="1">
          <mxGeometry x="110" width="120" height="50" as="geometry" />
        </mxCell>
        <mxCell id="jTdSeIXHc9XUFXkbGFJo-34" value="&lt;font style=&quot;font-size: 16px;&quot;&gt;Total_price&lt;/font&gt;" style="rounded=0;whiteSpace=wrap;html=1;" parent="jTdSeIXHc9XUFXkbGFJo-31" vertex="1">
          <mxGeometry x="230" width="120" height="50" as="geometry" />
        </mxCell>
        <mxCell id="jTdSeIXHc9XUFXkbGFJo-35" value="&lt;font style=&quot;font-size: 16px;&quot;&gt;&lt;u&gt;Customer_id&lt;/u&gt;&lt;/font&gt;" style="rounded=0;whiteSpace=wrap;html=1;" parent="jTdSeIXHc9XUFXkbGFJo-31" vertex="1">
          <mxGeometry x="350" width="120" height="50" as="geometry" />
        </mxCell>
        <mxCell id="jTdSeIXHc9XUFXkbGFJo-36" value="&lt;font style=&quot;font-size: 16px;&quot;&gt;&lt;u&gt;plate_id&lt;/u&gt;&lt;/font&gt;" style="rounded=0;whiteSpace=wrap;html=1;" parent="jTdSeIXHc9XUFXkbGFJo-31" vertex="1">
          <mxGeometry x="470" width="120" height="50" as="geometry" />
        </mxCell>
        <mxCell id="jTdSeIXHc9XUFXkbGFJo-37" value="&lt;font style=&quot;font-size: 16px;&quot;&gt;Reservation&lt;/font&gt;" style="text;html=1;align=center;verticalAlign=middle;resizable=0;points=[];autosize=1;strokeColor=none;fillColor=none;" parent="1" vertex="1">
          <mxGeometry x="4" y="290" width="110" height="30" as="geometry" />
        </mxCell>
        <mxCell id="jTdSeIXHc9XUFXkbGFJo-38" value="&lt;font style=&quot;font-size: 16px;&quot;&gt;Car&lt;/font&gt;" style="text;html=1;align=center;verticalAlign=middle;resizable=0;points=[];autosize=1;strokeColor=none;fillColor=none;" parent="1" vertex="1">
          <mxGeometry x="9" y="190" width="50" height="30" as="geometry" />
        </mxCell>
        <mxCell id="jTdSeIXHc9XUFXkbGFJo-39" value="&lt;font style=&quot;font-size: 16px;&quot;&gt;Address&lt;/font&gt;" style="text;html=1;align=center;verticalAlign=middle;resizable=0;points=[];autosize=1;strokeColor=none;fillColor=none;" parent="1" vertex="1">
          <mxGeometry x="9" y="480" width="80" height="30" as="geometry" />
        </mxCell>
        <mxCell id="jTdSeIXHc9XUFXkbGFJo-40" style="edgeStyle=orthogonalEdgeStyle;rounded=0;orthogonalLoop=1;jettySize=auto;html=1;entryX=0.5;entryY=0;entryDx=0;entryDy=0;" parent="1" source="jTdSeIXHc9XUFXkbGFJo-35" target="jTdSeIXHc9XUFXkbGFJo-6" edge="1">
          <mxGeometry relative="1" as="geometry">
            <Array as="points">
              <mxPoint x="529" y="350" />
              <mxPoint x="160" y="350" />
            </Array>
          </mxGeometry>
        </mxCell>
        <mxCell id="jTdSeIXHc9XUFXkbGFJo-41" style="edgeStyle=orthogonalEdgeStyle;rounded=0;orthogonalLoop=1;jettySize=auto;html=1;entryX=0.25;entryY=1;entryDx=0;entryDy=0;" parent="1" source="jTdSeIXHc9XUFXkbGFJo-36" target="jTdSeIXHc9XUFXkbGFJo-25" edge="1">
          <mxGeometry relative="1" as="geometry">
            <Array as="points">
              <mxPoint x="649" y="260" />
              <mxPoint x="285" y="260" />
            </Array>
          </mxGeometry>
        </mxCell>
        <mxCell id="jTdSeIXHc9XUFXkbGFJo-42" value="&lt;font style=&quot;font-size: 16px;&quot;&gt;Office&lt;/font&gt;" style="text;html=1;align=center;verticalAlign=middle;resizable=0;points=[];autosize=1;strokeColor=none;fillColor=none;" parent="1" vertex="1">
          <mxGeometry x="9" y="60" width="70" height="30" as="geometry" />
        </mxCell>
        <mxCell id="jTdSeIXHc9XUFXkbGFJo-43" value="&lt;font style=&quot;font-size: 16px;&quot;&gt;Customer&lt;/font&gt;" style="text;html=1;align=center;verticalAlign=middle;resizable=0;points=[];autosize=1;strokeColor=none;fillColor=none;" parent="1" vertex="1">
          <mxGeometry x="9" y="390" width="90" height="30" as="geometry" />
        </mxCell>
        <mxCell id="jTdSeIXHc9XUFXkbGFJo-44" value="&lt;font style=&quot;font-size: 16px;&quot;&gt;image&lt;br&gt;&lt;/font&gt;" style="rounded=0;whiteSpace=wrap;html=1;" parent="1" vertex="1">
          <mxGeometry x="709" y="180" width="73.75" height="50" as="geometry" />
        </mxCell>
      </root>
    </mxGraphModel>
  </diagram>
</mxfile>
